<svg width="520" height="520" viewBox="0 0 520 520" fill="none" xmlns="http://www.w3.org/2000/svg">
<g clip-path="url(#clip0_1334_34225)">
<path fill-rule="evenodd" clip-rule="evenodd" d="M297.125 107.352C297.125 107.352 315.787 67.6584 363.512 78.0873C411.236 88.5161 390.234 144.532 418.834 148.287C447.434 152.043 461.849 164.494 459.394 197.369C456.938 230.274 439.98 227.125 445.903 243.418C458.643 278.605 418.834 284.787 418.834 284.787L283.98 265.027C283.98 265.027 295.796 112.263 297.125 107.352V107.352Z" fill="#69BAC9"/>
<path fill-rule="evenodd" clip-rule="evenodd" d="M312.314 284.787C312.314 284.787 258.465 359.147 220.1 389.365C181.736 419.583 151.807 367.785 130.747 387.487C109.687 407.189 90.9091 410.425 67.0757 387.632C43.2135 364.838 55.058 356.692 40.0646 347.938C-16.3554 315.034 32.3513 275.369 32.3513 275.369L126.269 209.185C126.269 209.185 309.396 280.627 312.342 284.787H312.314Z" fill="#69BAC9"/>
<path fill-rule="evenodd" clip-rule="evenodd" d="M196.219 397.048L298.832 283.312L341.241 247.894C341.241 247.894 400.521 248.385 433.628 256.965C466.734 265.545 496.114 273.865 520.497 283.312L419.154 472.13C419.154 472.13 365.999 472.419 322.983 452.63C250.617 419.292 222.305 398.983 196.219 397.048V397.048Z" fill="#EBEBEB"/>
<path opacity="0.58" fill-rule="evenodd" clip-rule="evenodd" d="M293.743 384.195L308.072 386.679V387.286L311.308 387.979L311.394 389.683L308.101 391.128V391.706L296.112 397.599L296.257 398.437L292.241 399.159L142.597 426.777C141.643 428.308 143.781 429.117 143.781 429.117C143.781 429.117 186.826 425.506 188.877 425.535C190.928 425.563 190.899 427.961 189.974 428.135C182.059 429.521 144.879 433.248 141.383 433.826C137.859 434.403 135.028 432.41 134.421 431.052C134.074 430.301 133.641 429.232 133.381 428.481L131.128 428.886L131.186 429.406L128.066 429.81L127.979 429.001C127.979 429.001 127.806 429.088 127.69 429.117L126.217 429.319C125.812 429.377 125.437 429.088 125.379 428.683L123.472 413.921C123.414 413.517 123.703 413.141 124.108 413.083L125.581 412.881C125.581 412.881 125.841 412.881 125.957 412.939L125.841 411.928L129.308 411.148L129.366 411.639L289.294 383.415L293.512 382.606L293.801 384.223L293.743 384.195Z" fill="#808080"/>
<path opacity="0.19" fill-rule="evenodd" clip-rule="evenodd" d="M200.945 405.311L303.559 291.575L345.968 256.158C345.968 256.158 405.248 256.649 438.354 265.229C471.461 273.809 500.841 282.129 525.223 291.575L423.881 480.393C423.881 480.393 370.725 480.682 327.71 460.893C255.343 427.555 227.032 407.246 200.945 405.311V405.311Z" fill="black"/>
<path fill-rule="evenodd" clip-rule="evenodd" d="M196.219 397.048L298.832 283.312L341.241 247.894C341.241 247.894 400.521 248.385 433.628 256.965C466.734 265.545 496.114 273.865 520.497 283.312L419.154 472.13C419.154 472.13 365.999 472.419 322.983 452.63C250.617 419.292 222.305 398.983 196.219 397.048V397.048Z" fill="#F8FCDA"/>
<path fill-rule="evenodd" clip-rule="evenodd" d="M337.164 291.172C336.875 290.566 336.298 290.074 335.575 289.959C334.362 289.728 333.178 290.508 332.918 291.75C332.658 293.05 333.149 294.263 334.68 295.072C335.373 295.448 336.471 295.737 337.684 295.939C339.88 296.257 342.624 296.257 343.375 296.314C351.32 296.834 358.109 295.448 365.678 294.263L365.475 294.668C364.522 296.719 364.522 298.683 365.822 299.983C367.18 301.341 369.058 301.774 371.08 301.774C372.12 301.774 373.218 301.659 374.229 301.688C374.835 301.688 375.442 301.746 375.933 302.063C376.164 302.237 376.164 302.497 376.193 302.757C376.28 303.334 376.309 303.941 376.367 304.519C376.569 306.166 377.147 307.639 378.707 308.679C380.411 309.834 382.404 310.037 384.513 309.806C386.622 309.574 388.847 308.766 390.724 309.141C391.244 309.257 391.562 309.661 391.909 310.066C392.342 310.586 392.718 311.163 393.151 311.712C394.104 313.012 395.173 314.226 396.56 314.861C398.929 315.988 401.847 315.959 404.389 316.363C412.218 317.663 420.855 317.952 428.453 320.032C429.724 320.379 434.635 322.17 436.629 323.123C437.033 323.672 437.698 324.048 438.449 324.048C440.038 324.048 440.529 323.037 440.731 322.603C440.962 322.026 441.049 321.332 440.587 320.552C440.442 320.321 439.807 319.657 438.651 319.108C436.398 318.039 431.053 316.074 429.667 315.699C421.924 313.59 413.142 313.272 405.169 311.943C403.031 311.597 400.547 311.77 398.553 310.817C398.062 310.586 397.687 310.152 397.34 309.719C396.762 309.026 396.242 308.217 395.693 307.523C394.595 306.137 393.324 305.097 391.678 304.75C389.713 304.346 387.402 304.837 385.149 305.183C383.762 305.414 382.375 305.674 381.249 304.923C380.96 304.75 380.96 304.432 380.902 304.143C380.815 303.594 380.787 302.988 380.729 302.41C380.527 300.763 379.978 299.29 378.447 298.279C376.973 297.297 375.095 297.094 373.16 297.152C372.178 297.181 371.167 297.268 370.242 297.181C369.924 297.152 369.635 297.123 369.375 297.008C369.433 296.806 369.549 296.574 369.607 296.401C369.982 295.592 370.444 294.783 370.733 294.061C371.427 292.183 371.051 290.71 369.722 289.786C369.347 289.526 368.913 289.352 368.393 289.323C368.075 289.323 367.671 289.352 367.44 289.41C359.149 290.623 352.071 292.328 343.635 291.808C343.029 291.779 341.007 291.779 339.129 291.577C338.493 291.519 337.598 291.317 337.135 291.201L337.164 291.172Z" fill="#00427C"/>
<path fill-rule="evenodd" clip-rule="evenodd" d="M338.975 311.163C339.581 312.174 339.61 313.156 339.87 313.994C340.332 315.496 341.084 316.854 343.655 317.894C345.561 318.645 347.872 318.616 350.155 318.674C351.744 318.732 353.332 318.76 354.488 319.743C355.239 320.378 355.615 321.274 356.077 322.141C356.77 323.469 357.521 324.741 358.764 325.665C361.768 327.918 365.379 328.987 369.106 329.767C372.457 330.489 375.895 330.952 378.986 332.107C379.332 332.223 379.361 332.569 379.477 332.858C379.679 333.436 379.824 334.072 380.084 334.678C380.661 336.094 381.615 337.394 383.81 337.972C388.635 339.243 393.892 338.261 398.89 339.474C409.059 341.958 414.404 346.378 425.381 346.378C426.421 346.378 427.259 345.541 427.259 344.501C427.259 343.461 426.421 342.623 425.381 342.623C414.75 342.623 409.637 338.232 399.786 335.834C397.157 335.198 394.47 335.141 391.812 335.054C389.415 334.996 387.046 334.938 384.792 334.332C383.435 333.985 383.435 332.829 383.146 331.934C382.655 330.432 381.961 329.161 380.315 328.554C377.079 327.341 373.439 326.821 369.915 326.069C366.737 325.405 363.617 324.538 361.046 322.632C360.064 321.909 359.63 320.754 359.081 319.714C358.532 318.645 357.897 317.663 356.972 316.854C355.499 315.583 353.621 315.092 351.599 314.947C349.375 314.774 346.977 315.12 345.07 314.369C343.77 313.849 343.539 313.156 343.366 312.318C343.106 311.249 342.846 310.065 342.008 308.823C341.575 308.187 340.708 307.58 339.379 307.32C337.675 306.974 334.872 307.06 332.157 307.032C330.452 307.032 328.806 306.974 327.535 306.656C327.246 306.598 326.986 306.512 326.784 306.396C326.697 306.338 326.552 306.252 326.524 306.223C326.408 305.212 325.484 304.489 324.472 304.576C323.432 304.692 322.681 305.616 322.797 306.627C322.941 307.927 323.664 308.938 324.906 309.603C326.061 310.238 327.852 310.585 329.875 310.672C332.388 310.816 335.335 310.672 337.472 310.787C338.05 310.816 338.772 310.989 339.032 311.047L338.975 311.163Z" fill="#00427C"/>
<path fill-rule="evenodd" clip-rule="evenodd" d="M323.063 335.43C323.294 335.719 323.93 336.499 324.363 337.077C325.519 338.637 326.934 340.226 328.61 340.861C334.763 343.172 341.841 342.71 348.139 344.501C352.27 345.657 361.601 351.55 365.905 353.717C371.048 356.288 376.565 357.992 381.765 360.332C389.71 363.914 397.365 368.132 405.888 370.212C406.985 370.472 408.112 369.808 408.372 368.681C408.632 367.554 407.968 366.457 406.841 366.197C398.55 364.203 391.154 360.043 383.441 356.577C378.27 354.237 372.81 352.561 367.725 350.019C363.248 347.766 353.512 341.728 349.236 340.543C343.025 338.81 336.063 339.301 330.025 337.019C329.419 336.788 328.899 336.239 328.436 335.661C327.743 334.823 327.136 333.899 326.588 333.234C325.663 332.079 324.681 331.472 323.901 331.414C319.885 330.981 316.274 331.53 312.172 330.634C311.941 330.577 311.219 330.519 310.439 330.432C310.179 330.403 309.803 330.317 309.543 330.288C309.168 329.883 308.648 329.623 308.07 329.623C306.914 329.623 305.99 330.49 305.961 331.646C305.961 332.483 306.308 333.35 307.405 333.928C308.359 334.419 310.814 334.592 311.276 334.679C315.408 335.574 319.019 335.112 323.034 335.488L323.063 335.43Z" fill="#00427C"/>
<path fill-rule="evenodd" clip-rule="evenodd" d="M387.944 411.668C387.944 411.668 387.771 411.408 387.655 411.263C386.933 410.541 385.72 410.541 384.998 411.263C382.051 414.21 379.913 418.543 377.891 422.472C374.078 427.528 370.813 433.045 368.127 438.563C366.682 441.539 366.711 441.452 365.44 444.514C365.353 444.688 365.18 444.861 365.064 445.063C364.804 445.439 364.602 445.814 364.515 446.161C364.255 447.057 364.4 447.865 365.093 448.559C365.584 449.05 366.075 449.165 366.509 449.194C366.913 449.194 367.289 449.108 367.664 448.905C367.953 448.732 368.271 448.443 368.502 448.01C368.704 447.634 368.878 446.854 369.08 446.479C369.6 445.583 370.12 444.688 370.611 443.792C372.055 441.105 373.413 438.361 374.858 435.674C377.082 431.543 377.111 431.601 379.451 427.499C379.942 426.632 380.433 425.708 380.924 424.754L381.098 425.621C381.647 428.365 382.051 431.139 382.715 433.854C384.42 440.817 387.482 447.23 391.267 453.268C392.827 455.752 394.647 458.699 396.987 460.548C397.622 461.068 399.558 462.252 400.655 462.454C401.551 462.628 402.244 462.397 402.707 462.05C403.169 461.674 403.544 461.154 403.544 460.288C403.544 459.248 402.707 458.41 401.667 458.41C401.435 458.41 401.204 458.468 400.973 458.525C400.453 458.237 399.587 457.774 399.327 457.572C397.304 455.983 395.802 453.383 394.444 451.245C390.862 445.554 387.973 439.488 386.355 432.93C385.72 430.33 385.344 427.701 384.824 425.072C385.98 424.87 387.107 424.552 388.204 424.148C390.92 423.137 394.329 421.75 396.958 419.728C398.922 418.225 400.482 416.348 401.233 414.094C401.551 413.083 401.927 410.743 401.522 409.097C401.233 407.97 400.627 407.103 399.731 406.641C398.98 406.237 398.027 406.15 397.044 406.352C396.091 406.554 395.08 407.017 394.444 407.334C392.075 408.519 389.938 409.934 387.944 411.61V411.668ZM397.882 410.079C397.882 410.079 397.651 410.108 397.564 410.137C397.015 410.281 396.495 410.57 396.12 410.743C393.635 411.985 391.469 413.517 389.389 415.365C387.28 417.243 385.315 419.294 383.467 421.49C384.622 421.317 385.778 421.057 386.904 420.652C388.927 419.901 391.382 418.948 393.491 417.59C395.369 416.405 396.987 414.932 397.651 412.939C397.795 412.505 397.969 411.639 397.94 410.801C397.94 410.599 397.882 410.281 397.853 410.079H397.882Z" fill="#00427C"/>
<path fill-rule="evenodd" clip-rule="evenodd" d="M380.295 454.597C387.459 448.531 397.657 445.179 406.41 442.233C407.393 441.915 407.941 440.846 407.595 439.864C407.277 438.882 406.208 438.362 405.226 438.68C396.039 441.742 385.408 445.353 377.868 451.737C377.088 452.402 376.973 453.586 377.637 454.395C378.301 455.175 379.486 455.291 380.295 454.626V454.597Z" fill="#00427C"/>
<path fill-rule="evenodd" clip-rule="evenodd" d="M8.20312 235.532V252.172V271.47L139.214 358.859L150.481 316.276C150.481 316.276 130.663 275.63 128.323 275.947C125.983 276.265 8.20312 235.532 8.20312 235.532V235.532Z" fill="#E1D89F"/>
<path fill-rule="evenodd" clip-rule="evenodd" d="M5.43564 233.825L143.871 318.297V351.837L5.43564 263.321C5.43564 263.321 2.83565 267.452 9.85565 273.808C16.8756 280.192 139.22 359.088 139.22 359.088L387.26 251.939L392.431 214.123L345.111 190.088L254.082 167.005L5.43564 233.825Z" fill="#73204B" stroke="#73204B" stroke-width="1.43" stroke-linecap="round" stroke-linejoin="round"/>
<path fill-rule="evenodd" clip-rule="evenodd" d="M155.566 310.845L384.713 220.134C385.782 219.701 386.302 218.516 385.868 217.448C385.435 216.379 384.251 215.859 383.182 216.292L154.035 307.003C152.966 307.436 152.446 308.621 152.879 309.69C153.313 310.759 154.497 311.279 155.566 310.845V310.845Z" fill="#FF80A3"/>
<path fill-rule="evenodd" clip-rule="evenodd" d="M174.784 272.971L21.9041 235.531C21.9041 235.531 19.1308 195.028 25.3997 192.515C31.6686 190.002 263.415 107.755 263.415 107.755L351.035 167.006C351.035 167.006 350.775 172.813 345.951 176.337V196.733C345.951 196.733 352.884 196.819 351.035 201.413C349.186 205.977 174.784 272.971 174.784 272.971V272.971Z" fill="#1B998B"/>
<path fill-rule="evenodd" clip-rule="evenodd" d="M332.2 181.249L180.822 235.531L33.4023 201.442V231.747L176.922 263.553C176.922 263.553 345.113 195.231 345.951 196.733C346.789 198.236 345.951 176.338 345.951 176.338L332.229 181.249H332.2Z" fill="#E1D89F"/>
<path fill-rule="evenodd" clip-rule="evenodd" d="M178.07 263.088C192.829 257.097 345.156 195.304 345.953 196.733C346.791 198.236 345.953 176.338 345.953 176.338L332.231 181.249H332.202L181.414 235.32C180.101 246.318 178.886 256.371 178.07 263.088Z" fill="#F8FCDA"/>
<path fill-rule="evenodd" clip-rule="evenodd" d="M33.4023 150.222C33.4023 150.222 35.569 187.489 38.7179 190.378C41.8668 193.238 185.358 223.686 189.865 223.975C194.371 224.264 368.398 156.838 371.576 153.804C374.753 150.8 368.398 146.755 368.398 146.755V116.162C368.398 116.162 375.88 111.713 375.245 107.726C374.58 103.74 233.458 71.9909 233.458 71.9909L33.4023 150.222Z" fill="#F36F21"/>
<path fill-rule="evenodd" clip-rule="evenodd" d="M268.399 79.9804C266.634 79.5717 264.909 79.1731 263.231 78.786C262.595 90.5215 258.647 105.619 248.51 113.646C227.941 129.911 196.163 103.824 196.481 92.8753H196.452C196.509 90.6504 197.78 87.7622 199.672 85.1992L163.163 99.4762C163.703 99.6773 164.134 99.9236 164.443 100.213C170.712 106.106 185.012 140.455 153.003 153.629C115.823 168.94 108.398 130.806 107.763 127.137C107.436 125.248 108.878 122.639 112.665 119.223L91.1445 127.639C92.34 130.825 95.2286 138.032 96.8718 137.942C97.5172 137.915 98.1787 137.564 98.8764 137.194C100.459 136.354 102.227 135.416 104.412 137.942C104.793 138.383 105.333 139.255 106.05 140.416C111.256 148.837 125.849 172.442 157.712 156.777C181.609 145.046 178.94 127.038 177.314 116.068C176.666 111.694 176.184 108.439 177.616 107.146C177.819 106.964 178.019 106.782 178.217 106.602C181.747 103.395 184.67 100.74 190.934 102.929C193.942 103.977 197.369 106.761 202.247 110.722C204.491 112.544 207.042 114.615 210.001 116.882C233.574 134.937 259.025 122.14 264.37 107.146C267.091 99.4979 268.082 88.7192 268.399 79.9804Z" fill="#73204B"/>
<path fill-rule="evenodd" clip-rule="evenodd" d="M41.2818 155.681C41.2818 155.681 184.917 188.008 189.857 187.43C194.797 186.853 371.337 115.468 371.337 115.468V145.455L189.857 218.197L44.8062 185.495C44.8062 185.495 41.8307 175.961 41.2529 171.05C40.6751 166.081 41.2529 155.681 41.2529 155.681H41.2818Z" fill="#F8FCDA"/>
<path fill-rule="evenodd" clip-rule="evenodd" d="M188.334 187.309C172.066 185.116 41.2818 155.681 41.2818 155.681H41.2529C41.2529 155.681 40.6751 166.081 41.2529 171.05C41.8307 175.961 44.8062 185.495 44.8062 185.495L188.334 217.853V187.309Z" fill="#E1D89F"/>
<path fill-rule="evenodd" clip-rule="evenodd" d="M189.973 424.953C190.868 424.809 190.926 422.382 188.875 422.353C186.824 422.353 143.779 425.936 143.779 425.936C143.779 425.936 140.833 424.78 143.404 422.729L133.004 424.318C133.004 424.318 133.784 426.542 134.419 427.871C135.055 429.2 137.857 431.222 141.382 430.644C144.906 430.067 182.057 426.34 189.973 424.953V424.953Z" fill="#009AAC"/>
<path fill-rule="evenodd" clip-rule="evenodd" d="M291.72 379.83L127.891 408.747L130.115 425.907L294.608 395.545L291.72 379.83Z" fill="#00427C"/>
<path fill-rule="evenodd" clip-rule="evenodd" d="M311.329 384.828L307.053 383.903L292.84 388.757L293.186 390.548L306.735 388.555L311.415 386.503L311.329 384.799V384.828Z" fill="#808080"/>
<path fill-rule="evenodd" clip-rule="evenodd" d="M128.041 426.659L125.816 408.776L129.283 407.996L131.161 426.254L128.041 426.659Z" fill="#009AAC"/>
<path fill-rule="evenodd" clip-rule="evenodd" d="M125.55 409.73C125.954 409.672 126.33 409.961 126.388 410.366L128.294 425.128C128.352 425.532 128.063 425.908 127.659 425.966L126.185 426.168C125.781 426.226 125.405 425.937 125.348 425.532L123.441 410.77C123.383 410.366 123.672 409.99 124.077 409.932L125.55 409.73V409.73Z" fill="#00427C"/>
<path fill-rule="evenodd" clip-rule="evenodd" d="M292.122 396.008L289.262 380.263L293.479 379.454L296.282 395.286L292.151 396.037L292.122 396.008Z" fill="#009AAC"/>
<path fill-rule="evenodd" clip-rule="evenodd" d="M295.304 394.823L308.102 388.554V383.528L292.762 380.899C292.762 380.899 292.906 389.826 295.304 394.852V394.823Z" fill="#00427C"/>
<path fill-rule="evenodd" clip-rule="evenodd" d="M196.678 197.745L364.002 128.267C364.638 128.007 364.927 127.285 364.667 126.649C364.407 126.014 363.685 125.725 363.049 125.985L195.725 195.491C195.089 195.751 194.8 196.474 195.06 197.109C195.32 197.745 196.042 198.034 196.678 197.774V197.745Z" fill="#BD8157"/>
<path fill-rule="evenodd" clip-rule="evenodd" d="M308.217 160.306L364.001 137.137C364.637 136.877 364.926 136.155 364.666 135.519C364.406 134.883 363.684 134.595 363.048 134.855L307.264 158.023C306.628 158.283 306.339 159.006 306.599 159.641C306.859 160.277 307.581 160.566 308.217 160.306Z" fill="#BD8157"/>
<path fill-rule="evenodd" clip-rule="evenodd" d="M190.289 243.85L341.436 187.199C342.071 186.968 342.389 186.246 342.158 185.61C341.927 184.975 341.205 184.657 340.569 184.888L189.423 241.539C188.787 241.77 188.469 242.492 188.7 243.128C188.931 243.764 189.654 244.081 190.289 243.85V243.85Z" fill="#BD8157"/>
<path fill-rule="evenodd" clip-rule="evenodd" d="M190.295 253.124L319.977 203.319C320.612 203.088 320.93 202.366 320.67 201.73C320.439 201.095 319.717 200.777 319.081 201.008L189.399 250.813C188.764 251.044 188.446 251.766 188.677 252.402C188.908 253.037 189.63 253.355 190.266 253.124H190.295Z" fill="#BD8157"/>
<path fill-rule="evenodd" clip-rule="evenodd" d="M12.4807 253.009L129.307 328.034C129.885 328.409 130.636 328.236 131.012 327.658C131.387 327.08 131.214 326.329 130.636 325.954L13.8096 250.929C13.2318 250.554 12.4807 250.727 12.1052 251.305C11.7296 251.883 11.903 252.634 12.4807 253.009Z" fill="#BD8157"/>
<path fill-rule="evenodd" clip-rule="evenodd" d="M12.4792 264.363L78.5769 305.818C79.1547 306.165 79.9058 305.991 80.2814 305.443C80.6569 304.865 80.4547 304.114 79.9058 303.738L13.7792 262.283C13.2014 261.936 12.4503 262.109 12.0747 262.687C11.6992 263.265 11.9014 264.016 12.4503 264.391L12.4792 264.363Z" fill="#BD8157"/>
<path fill-rule="evenodd" clip-rule="evenodd" d="M50.6958 168.047L179.569 197.658C180.234 197.802 180.898 197.398 181.042 196.733C181.187 196.069 180.782 195.404 180.118 195.26L51.2447 165.678C50.5803 165.533 49.9158 165.938 49.7714 166.602C49.6269 167.267 50.0314 167.931 50.6958 168.075V168.047Z" fill="#BD8157"/>
<path fill-rule="evenodd" clip-rule="evenodd" d="M45.899 215.57L172.692 243.881C173.357 244.026 174.021 243.621 174.166 242.957C174.31 242.292 173.906 241.628 173.241 241.483L46.4478 213.172C45.7834 213.028 45.119 213.432 44.9745 214.097C44.8301 214.761 45.2345 215.426 45.899 215.57Z" fill="#BD8157"/>
<path fill-rule="evenodd" clip-rule="evenodd" d="M45.9579 228.281L129.736 243.91C130.4 244.025 131.036 243.592 131.18 242.927C131.296 242.263 130.862 241.627 130.198 241.483L46.4201 225.854C45.7557 225.739 45.1201 226.172 44.9757 226.836C44.8601 227.501 45.2934 228.136 45.9579 228.281V228.281Z" fill="#BD8157"/>
<path fill-rule="evenodd" clip-rule="evenodd" d="M71.2661 182.838L148.457 201.096C149.122 201.24 149.786 200.836 149.931 200.171C150.075 199.507 149.671 198.843 149.006 198.698L71.815 180.44C71.1506 180.296 70.4861 180.7 70.3417 181.365C70.1973 182.029 70.6017 182.694 71.2661 182.838V182.838Z" fill="#BD8157"/>
<path fill-rule="evenodd" clip-rule="evenodd" d="M255.785 54.0777C255.785 54.0777 204.334 77.5066 180.356 94.6955C168.714 103.044 155.598 111.624 148 123.035C143.494 129.795 131.852 149.555 131.852 149.555V154.495H139.969C139.969 154.495 156.523 121.88 159.787 119.309C161.145 118.24 163.918 110.989 188.329 96.5444C222.736 76.1777 265.376 57.9199 265.376 57.9199C265.376 57.9199 266.907 50.5532 255.785 54.0777V54.0777Z" fill="#73204B"/>
<path fill-rule="evenodd" clip-rule="evenodd" d="M107.027 117.576C107.027 117.576 159.72 97.0363 188.754 91.8652C202.88 89.3518 218.163 85.9429 231.625 88.4563C239.627 89.9585 261.9 95.3607 261.9 95.3607L265.454 98.8274L259.792 104.634C259.792 104.634 224.865 93.743 220.763 94.2918C219.058 94.523 211.923 91.4607 184.536 98.8852C145.94 109.343 103.098 127.139 103.098 127.139C103.098 127.139 96.7426 123.094 107.027 117.576V117.576Z" fill="#73204B"/>
<path fill-rule="evenodd" clip-rule="evenodd" d="M92.8164 122.603C92.8164 122.603 96.9764 134.506 99.0853 134.39C101.194 134.303 103.476 130.75 106.625 134.39C109.774 138.03 123.67 171.05 159.925 153.226C193.35 136.817 174.803 108.13 179.83 103.595C183.643 100.157 186.532 97.0656 193.148 99.3767C197.539 100.908 202.825 106.137 212.214 113.33C235.788 131.386 261.239 118.588 266.583 103.595C271.928 88.5723 270.599 61.4745 270.599 61.4745C270.599 61.4745 272.881 59.3945 272.014 57.7478C270.136 54.1656 267.132 49.2834 264.879 49.1678C262.625 49.0523 237.116 47.8678 206.436 67.6278C195.025 74.9656 190.836 82.0723 190.836 82.0723L172.983 88.6589C172.983 88.6589 150.479 86.1745 129.968 96.6901C103.245 110.383 92.8453 122.632 92.8453 122.632L92.8164 122.603ZM166.656 96.6612C163.45 93.6567 147.07 95.3034 132.308 103.797C115.379 113.532 109.341 119.917 109.976 123.586C110.612 127.255 118.036 165.388 155.216 150.077C187.225 136.903 172.925 102.554 166.656 96.6612V96.6612ZM198.665 89.3234C198.752 85.9434 201.641 81.0323 205.252 78.0567C212.388 72.1634 221.141 67.5412 231.021 64.3923C253.959 57.0834 260.69 53.0678 263.983 60.6945C267.276 68.3212 266.41 97.6723 250.723 110.095C230.154 126.359 198.376 100.272 198.694 89.3234H198.665Z" fill="#EE235C"/>
<g opacity="0.46">
<path fill-rule="evenodd" clip-rule="evenodd" d="M252.828 80.3956V80.4534C251.615 83.7179 244.335 98.8845 242.717 102.236C242.283 102.611 242.023 103.16 242.023 103.796C242.023 104.922 242.948 105.847 244.075 105.847H244.248C245.028 105.847 245.75 105.385 246.097 104.691C246.097 104.691 255.312 85.6245 256.67 81.869C257.017 80.9156 256.959 80.2801 256.901 80.0779C256.728 79.3556 256.295 78.9512 255.89 78.7201C255.515 78.5179 255.052 78.4023 254.532 78.489C253.579 78.6623 252.886 79.4712 252.828 80.3956V80.3956ZM253.608 82.1579C254.012 82.5045 254.503 82.6779 255.139 82.5912C254.561 82.649 254.012 82.4756 253.608 82.1579Z" fill="#F8FCDA"/>
</g>
<g opacity="0.46">
<path fill-rule="evenodd" clip-rule="evenodd" d="M158.011 118.473V118.531C156.798 121.795 149.518 136.962 147.9 140.313C147.467 140.689 147.207 141.238 147.207 141.873C147.207 143 148.131 143.924 149.258 143.924H149.431C150.211 143.924 150.934 143.462 151.28 142.769C151.28 142.769 160.496 123.702 161.854 119.946C162.2 118.993 162.143 118.358 162.085 118.155C161.911 117.433 161.478 117.029 161.074 116.798C160.698 116.595 160.236 116.48 159.716 116.566C158.763 116.74 158.069 117.549 158.011 118.473V118.473ZM158.791 120.235C159.196 120.582 159.687 120.755 160.323 120.669C159.745 120.726 159.196 120.553 158.791 120.235Z" fill="#F8FCDA"/>
</g>
<path opacity="0.46" fill-rule="evenodd" clip-rule="evenodd" d="M230.729 110.902L251.731 63.9288C252.194 62.8888 251.731 61.6755 250.691 61.1844C249.651 60.7222 248.438 61.1844 247.947 62.2244L226.945 109.198C226.483 110.238 226.945 111.451 227.985 111.942C229.025 112.404 230.238 111.942 230.729 110.902Z" fill="#F8FCDA"/>
<path opacity="0.46" fill-rule="evenodd" clip-rule="evenodd" d="M135.917 148.951L156.919 101.978C157.381 100.938 156.919 99.7248 155.879 99.2336C154.839 98.7714 153.626 99.2336 153.135 100.274L132.132 147.247C131.67 148.287 132.132 149.5 133.172 149.991C134.212 150.454 135.426 149.991 135.917 148.951Z" fill="#F8FCDA"/>
</g>
<defs>
<clipPath id="clip0_1334_34225">
<rect width="520" height="520" fill="white"/>
</clipPath>
</defs>
</svg>
